<?xml version="1.0" encoding="utf-8"?>
<!-- Generator: Adobe Illustrator 23.0.1, SVG Export Plug-In . SVG Version: 6.00 Build 0)  -->
<svg version="1.1" xmlns="http://www.w3.org/2000/svg" xmlns:xlink="http://www.w3.org/1999/xlink" x="0px" y="0px"
	 viewBox="0 0 501 501" style="enable-background:new 0 0 501 501;" xml:space="preserve">
<g id="VuMark-UserData">
</g>
<g id="VuMark-ClearSpace">
	<rect x="0.5" y="0.5" style="fill:#FFFFFF;stroke:#000000;stroke-miterlimit:10;" width="500" height="500"/>
</g>
<g id="VuMark-Border">
	<polygon style="fill:#33313B;stroke:#33313B;stroke-miterlimit:10;" points="50.264,137.282 249.517,25.5 449.517,138.718 
		450.264,363.718 251.011,475.5 51.011,362.282 	"/>
</g>
<g id="VuMark-Background">
	<g>
		<path style="fill:#FFFFFF;stroke:#000000;stroke-width:0.25;stroke-miterlimit:10;" d="M205.378,268.94H193.76l-3.038-8.818
			h-16.144l-3.039,8.818h-11.337l16.113-43.623h12.949L205.378,268.94z M188.017,252.124l-5.366-15.628l-5.368,15.628H188.017z"/>
		<path style="fill:#FFFFFF;stroke:#000000;stroke-width:0.25;stroke-miterlimit:10;" d="M253.66,268.94h-13.741l-11.868-15.996
			h-5.212v15.996h-11.191v-43.623h18.867c2.578,0,4.795,0.146,6.65,0.439s3.594,0.928,5.215,1.904
			c1.641,0.977,2.944,2.241,3.911,3.794s1.45,3.501,1.45,5.845c0,3.223-0.747,5.85-2.241,7.881
			c-1.494,2.032-3.628,3.721-6.401,5.068L253.66,268.94z M236.111,238.677c0-1.094-0.225-2.031-0.674-2.813
			c-0.449-0.781-1.221-1.396-2.314-1.846c-0.762-0.312-1.65-0.502-2.666-0.571c-1.016-0.068-2.197-0.103-3.545-0.103h-4.072v11.748
			h3.457c1.797,0,3.301-0.088,4.512-0.264s2.227-0.576,3.047-1.201c0.781-0.605,1.353-1.274,1.714-2.007
			S236.111,239.907,236.111,238.677z"/>
		<path style="fill:#FFFFFF;stroke:#000000;stroke-width:0.25;stroke-miterlimit:10;" d="M298.133,225.317l-15.908,43.623h-12.598
			l-15.908-43.623h11.819l10.544,30.623l10.544-30.623H298.133z"/>
		<path style="fill:#FFFFFF;stroke:#000000;stroke-width:0.25;stroke-miterlimit:10;" d="M324.119,269.79
			c-3.242,0-6.235-0.479-8.979-1.436s-5.103-2.383-7.075-4.277s-3.501-4.258-4.585-7.09s-1.626-6.104-1.626-9.814
			c0-3.457,0.518-6.592,1.553-9.404s2.539-5.225,4.512-7.236c1.895-1.934,4.243-3.428,7.046-4.482s5.864-1.582,9.185-1.582
			c1.836,0,3.491,0.103,4.966,0.308s2.837,0.474,4.087,0.806c1.309,0.371,2.495,0.787,3.56,1.245
			c1.064,0.459,1.997,0.884,2.798,1.274v10.576h-1.289c-0.547-0.466-1.235-1.02-2.065-1.661c-0.83-0.642-1.772-1.273-2.827-1.895
			c-1.074-0.622-2.236-1.146-3.486-1.574c-1.25-0.427-2.588-0.641-4.014-0.641c-1.582,0-3.086,0.249-4.512,0.746
			s-2.744,1.321-3.955,2.471c-1.152,1.111-2.085,2.583-2.798,4.415s-1.069,4.054-1.069,6.666c0,2.729,0.386,5.009,1.157,6.841
			c0.771,1.833,1.743,3.275,2.915,4.327c1.191,1.072,2.52,1.837,3.984,2.295s2.91,0.688,4.336,0.688c1.367,0,2.72-0.204,4.058-0.612
			s2.573-0.962,3.706-1.662c0.957-0.563,1.846-1.165,2.666-1.807c0.82-0.641,1.494-1.195,2.021-1.661h1.172v10.43
			c-1.094,0.488-2.139,0.947-3.135,1.377s-2.041,0.802-3.135,1.113c-1.426,0.41-2.764,0.723-4.014,0.938
			S326.307,269.79,324.119,269.79z"/>
	</g>
	
		<line style="fill:none;stroke:#FFFFFF;stroke-width:2;stroke-miterlimit:10;" x1="353.179" y1="250.279" x2="430.941" y2="250.279"/>
	<line style="fill:none;stroke:#FFFFFF;stroke-width:2;stroke-miterlimit:10;" x1="67.499" y1="250.5" x2="145.261" y2="250.5"/>
</g>
<g id="VuMark-DarkElements">
	<polygon id="d0014" style="fill:#33313B;" points="108.584,182.603 96.025,192.649 108.584,202.696 121.143,192.649 	"/>
	<polygon id="d0015" style="fill:#33313B;" points="121.143,172.556 108.584,182.603 121.143,192.649 133.701,182.603 	"/>
	<polygon id="d0018" style="fill:#33313B;" points="133.701,162.509 121.143,172.556 133.701,182.603 146.26,172.556 	"/>
	<polygon id="d0021" style="fill:#33313B;" points="146.087,152.711 133.587,162.711 146.087,172.711 158.587,162.711 	"/>
	<polygon id="d0016" style="fill:#33313B;" points="121.143,192.649 108.584,202.696 121.143,212.743 133.701,202.696 	"/>
	<polygon id="d0019" style="fill:#33313B;" points="133.701,182.603 121.143,192.649 133.701,202.696 146.26,192.649 	"/>
	<polygon id="d0022" style="fill:#33313B;" points="146.26,172.556 133.701,182.603 146.26,192.649 158.818,182.603 	"/>
	<polygon id="d0024" style="fill:#33313B;" points="158.587,162.711 146.087,172.711 158.587,182.711 171.087,172.711 	"/>
	<polygon id="d0017" style="fill:#33313B;" points="133.556,202.711 121.056,212.711 133.556,222.711 146.056,212.711 	"/>
	<polygon id="d0020" style="fill:#33313B;" points="146.087,192.711 133.587,202.711 146.087,212.711 158.587,202.711 	"/>
	<polygon id="d0023" style="fill:#33313B;" points="158.587,182.711 146.087,192.711 158.587,202.711 171.087,192.711 	"/>
	<polygon id="d0025" style="fill:#33313B;" points="171.087,172.711 158.587,182.711 171.087,192.711 183.587,182.711 	"/>
	<polygon id="d0057" style="fill:#33313B;" points="328.975,172.649 316.475,182.649 328.975,192.649 341.475,182.649 	"/>
	<polygon id="d0058" style="fill:#33313B;" points="341.475,162.649 328.975,172.649 341.475,182.649 353.975,172.649 	"/>
	<polygon id="d0059" style="fill:#33313B;" points="353.975,152.649 341.475,162.649 353.975,172.649 366.475,162.649 	"/>
	<polygon id="d0050" style="fill:#33313B;" points="341.475,182.649 328.975,192.649 341.475,202.649 353.975,192.649 	"/>
	<polygon id="d0060" style="fill:#33313B;" points="353.975,172.649 341.475,182.649 353.975,192.649 366.475,182.649 	"/>
	<polygon id="d0061" style="fill:#33313B;" points="366.475,162.649 353.975,172.649 366.475,182.649 378.975,172.649 	"/>
	<polygon id="d0051" style="fill:#33313B;" points="353.975,192.649 341.475,202.649 353.975,212.649 366.475,202.649 	"/>
	<polygon id="d0052" style="fill:#33313B;" points="366.475,182.649 353.975,192.649 366.475,202.649 378.975,192.649 	"/>
	<polygon id="d0062" style="fill:#33313B;" points="378.975,172.649 366.475,182.649 378.975,192.649 391.475,182.649 	"/>
	<polygon id="d0053" style="fill:#33313B;" points="366.475,202.649 353.975,212.649 366.475,222.649 378.975,212.649 	"/>
	<polygon id="d0054" style="fill:#33313B;" points="378.975,192.649 366.475,202.649 378.975,212.649 391.475,202.649 	"/>
	<polygon id="d0055" style="fill:#33313B;" points="391.475,182.649 378.975,192.649 391.475,202.649 403.975,192.649 	"/>
	<polygon id="d0000" style="fill:#33313B;" points="163.795,319.469 151.295,329.469 163.795,339.469 176.295,329.469 	"/>
	<polygon id="d0001" style="fill:#33313B;" points="176.295,309.469 163.795,319.469 176.295,329.469 188.795,319.469 	"/>
	<polygon id="d0004" style="fill:#33313B;" points="188.795,299.469 176.295,309.469 188.795,319.469 201.295,309.469 	"/>
	<polygon id="d0026" style="fill:#33313B;" points="201.295,289.469 188.795,299.469 201.295,309.469 213.795,299.469 	"/>
	<polygon id="d0002" style="fill:#33313B;" points="176.295,329.469 163.795,339.469 176.295,349.469 188.795,339.469 	"/>
	<polygon id="d0003" style="fill:#33313B;" points="188.795,319.469 176.295,329.469 188.795,339.469 201.295,329.469 	"/>
	<polygon id="d0006" style="fill:#33313B;" points="201.295,309.469 188.795,319.469 201.295,329.469 213.795,319.469 	"/>
	<polygon id="d0010" style="fill:#33313B;" points="213.795,299.469 201.295,309.469 213.795,319.469 226.295,309.469 	"/>
	<polygon id="d0005" style="fill:#33313B;" points="188.795,339.469 176.295,349.469 188.795,359.469 201.295,349.469 	"/>
	<polygon id="d0008" style="fill:#33313B;" points="201.295,329.469 188.795,339.469 201.295,349.469 213.795,339.469 	"/>
	<polygon id="d0011" style="fill:#33313B;" points="213.795,319.469 201.295,329.469 213.795,339.469 226.295,329.469 	"/>
	<polygon id="d0012" style="fill:#33313B;" points="226.295,309.469 213.795,319.469 226.295,329.469 238.795,319.469 	"/>
	<polygon id="d0007" style="fill:#33313B;" points="201.295,349.469 188.795,359.469 201.295,369.469 213.795,359.469 	"/>
	<polygon id="d0009" style="fill:#33313B;" points="213.795,339.469 201.295,349.469 213.795,359.469 226.295,349.469 	"/>
	<polygon id="d0013" style="fill:#33313B;" points="226.295,329.469 213.795,339.469 226.295,349.469 238.795,339.469 	"/>
	<polygon id="d0028" style="fill:#33313B;" points="213.795,132.091 201.295,142.091 213.795,152.091 226.295,142.091 	"/>
	<polygon id="d0030" style="fill:#33313B;" points="226.295,122.091 213.795,132.091 226.295,142.091 238.795,132.091 	"/>
	<polygon id="d0032" style="fill:#33313B;" points="238.795,112.091 226.295,122.091 238.795,132.091 251.295,122.091 	"/>
	<polygon id="d0063" style="fill:#33313B;" points="251.295,102.091 238.795,112.091 251.295,122.091 263.795,112.091 	"/>
	<polygon id="d0029" style="fill:#33313B;" points="226.295,142.091 213.795,152.091 226.295,162.091 238.795,152.091 	"/>
	<polygon id="d0031" style="fill:#33313B;" points="238.795,132.091 226.295,142.091 238.795,152.091 251.295,142.091 	"/>
	<polygon id="d0034" style="fill:#33313B;" points="251.295,122.091 238.795,132.091 251.295,142.091 263.795,132.091 	"/>
	<polygon id="d0066" style="fill:#33313B;" points="263.795,112.091 251.295,122.091 263.795,132.091 276.295,122.091 	"/>
	<polygon id="d0033" style="fill:#33313B;" points="238.795,152.091 226.295,162.091 238.795,172.091 251.295,162.091 	"/>
	<polygon id="d0064" style="fill:#33313B;" points="251.295,142.091 238.795,152.091 251.295,162.091 263.795,152.091 	"/>
	<polygon id="d0065" style="fill:#33313B;" points="263.795,132.091 251.295,142.091 263.795,152.091 276.295,142.091 	"/>
	<polygon id="d0067" style="fill:#33313B;" points="276.295,122.091 263.795,132.091 276.295,142.091 288.795,132.091 	"/>
	<polygon id="d0027" style="fill:#33313B;" points="251.295,162.091 238.795,172.091 251.295,182.091 263.795,172.091 	"/>
	<polygon id="d0056" style="fill:#33313B;" points="263.795,152.091 251.295,162.091 263.795,172.091 276.295,162.091 	"/>
	<polygon id="d0068" style="fill:#33313B;" points="276.295,142.091 263.795,152.091 276.295,162.091 288.795,152.091 	"/>
	<polygon id="d0069" style="fill:#33313B;" points="288.795,132.091 276.295,142.091 288.795,152.091 301.295,142.091 	"/>
	<polygon id="d0036" style="fill:#33313B;" points="288.795,307.827 276.295,317.827 288.795,327.827 301.295,317.827 	"/>
	<polygon id="d0038" style="fill:#33313B;" points="301.295,297.827 288.795,307.827 301.295,317.827 313.795,307.827 	"/>
	<polygon id="d0049" style="fill:#33313B;" points="313.795,287.827 301.295,297.827 313.795,307.827 326.295,297.827 	"/>
	<polygon id="d0035" style="fill:#33313B;" points="288.795,327.827 276.295,337.827 288.795,347.827 301.295,337.827 	"/>
	<polygon id="d0037" style="fill:#33313B;" points="301.295,317.827 288.795,327.827 301.295,337.827 313.795,327.827 	"/>
	<polygon id="d0040" style="fill:#33313B;" points="313.795,307.827 301.295,317.827 313.795,327.827 326.295,317.827 	"/>
	<polygon id="d0044" style="fill:#33313B;" points="326.295,297.827 313.795,307.827 326.295,317.827 338.795,307.827 	"/>
	<polygon id="d0039" style="fill:#33313B;" points="301.295,337.827 288.795,347.827 301.295,357.827 313.795,347.827 	"/>
	<polygon id="d0041" style="fill:#33313B;" points="313.795,327.827 301.295,337.827 313.795,347.827 326.295,337.827 	"/>
	<polygon id="d0045" style="fill:#33313B;" points="326.295,317.827 313.795,327.827 326.295,337.827 338.795,327.827 	"/>
	<polygon id="d0047" style="fill:#33313B;" points="338.795,307.827 326.295,317.827 338.795,327.827 351.295,317.827 	"/>
	<polygon id="d0042" style="fill:#33313B;" points="313.795,347.827 301.295,357.827 313.795,367.827 326.295,357.827 	"/>
	<polygon id="d0043" style="fill:#33313B;" points="326.295,337.827 313.795,347.827 326.295,357.827 338.795,347.827 	"/>
	<polygon id="d0046" style="fill:#33313B;" points="338.795,327.827 326.295,337.827 338.795,347.827 351.295,337.827 	"/>
	<polygon id="d0048" style="fill:#33313B;" points="351.295,317.827 338.795,327.827 351.295,337.827 363.795,327.827 	"/>
</g>
<g id="VuMark-BrightElements">
	<polygon id="b0014" style="fill:#FFFFFF;" points="107.788,182.792 95.23,192.838 107.788,202.885 120.347,192.838 	"/>
	<polygon id="b0015" style="fill:#FFFFFF;" points="120.347,172.745 107.788,182.792 120.347,192.838 132.906,182.792 	"/>
	<polygon id="b0018" style="fill:#FFFFFF;" points="132.906,162.698 120.347,172.745 132.906,182.792 145.464,172.745 	"/>
	<polygon id="b0021" style="fill:#FFFFFF;" points="145.291,152.9 132.791,162.9 145.291,172.9 157.791,162.9 	"/>
	<polygon id="b0016" style="fill:#FFFFFF;" points="120.347,192.838 107.788,202.885 120.347,212.932 132.906,202.885 	"/>
	<polygon id="b0019" style="fill:#FFFFFF;" points="132.906,182.792 120.347,192.838 132.906,202.885 145.464,192.838 	"/>
	<polygon id="b0022" style="fill:#FFFFFF;" points="145.464,172.745 132.906,182.792 145.464,192.838 158.023,182.792 	"/>
	<polygon id="b0024" style="fill:#FFFFFF;" points="157.791,162.9 145.291,172.9 157.791,182.9 170.291,172.9 	"/>
	<polygon id="b0017" style="fill:#FFFFFF;" points="132.761,202.9 120.261,212.9 132.761,222.9 145.261,212.9 	"/>
	<polygon id="b0020" style="fill:#FFFFFF;" points="145.291,192.9 132.791,202.9 145.291,212.9 157.791,202.9 	"/>
	<polygon id="b0023" style="fill:#FFFFFF;" points="157.791,182.9 145.291,192.9 157.791,202.9 170.291,192.9 	"/>
	<polygon id="b0025" style="fill:#FFFFFF;" points="170.291,172.9 157.791,182.9 170.291,192.9 182.791,182.9 	"/>
	<polygon id="b0057" style="fill:#FFFFFF;" points="328.179,172.838 315.679,182.838 328.179,192.838 340.679,182.838 	"/>
	<polygon id="b0058" style="fill:#FFFFFF;" points="340.679,162.838 328.179,172.838 340.679,182.838 353.179,172.838 	"/>
	<polygon id="b0059" style="fill:#FFFFFF;" points="353.179,152.838 340.679,162.838 353.179,172.838 365.679,162.838 	"/>
	<polygon id="b0050" style="fill:#FFFFFF;" points="340.679,182.838 328.179,192.838 340.679,202.838 353.179,192.838 	"/>
	<polygon id="b0060" style="fill:#FFFFFF;" points="353.179,172.838 340.679,182.838 353.179,192.838 365.679,182.838 	"/>
	<polygon id="b0061" style="fill:#FFFFFF;" points="365.679,162.838 353.179,172.838 365.679,182.838 378.179,172.838 	"/>
	<polygon id="b0051" style="fill:#FFFFFF;" points="353.179,192.838 340.679,202.838 353.179,212.838 365.679,202.838 	"/>
	<polygon id="b0052" style="fill:#FFFFFF;" points="365.679,182.838 353.179,192.838 365.679,202.838 378.179,192.838 	"/>
	<polygon id="b0062" style="fill:#FFFFFF;" points="378.179,172.838 365.679,182.838 378.179,192.838 390.679,182.838 	"/>
	<polygon id="b0053" style="fill:#FFFFFF;" points="365.679,202.838 353.179,212.838 365.679,222.838 378.179,212.838 	"/>
	<polygon id="b0054" style="fill:#FFFFFF;" points="378.179,192.838 365.679,202.838 378.179,212.838 390.679,202.838 	"/>
	<polygon id="b0055" style="fill:#FFFFFF;" points="390.679,182.838 378.179,192.838 390.679,202.838 403.179,192.838 	"/>
	<polygon id="b0000" style="fill:#FFFFFF;" points="163,319.658 150.5,329.658 163,339.658 175.5,329.658 	"/>
	<polygon id="b0001" style="fill:#FFFFFF;" points="175.5,309.658 163,319.658 175.5,329.658 188,319.658 	"/>
	<polygon id="b0004" style="fill:#FFFFFF;" points="188,299.658 175.5,309.658 188,319.658 200.5,309.658 	"/>
	<polygon id="b0026" style="fill:#FFFFFF;" points="200.5,289.658 188,299.658 200.5,309.658 213,299.658 	"/>
	<polygon id="b0002" style="fill:#FFFFFF;" points="175.5,329.658 163,339.658 175.5,349.658 188,339.658 	"/>
	<polygon id="b0003" style="fill:#FFFFFF;" points="188,319.658 175.5,329.658 188,339.658 200.5,329.658 	"/>
	<polygon id="b0006" style="fill:#FFFFFF;" points="200.5,309.658 188,319.658 200.5,329.658 213,319.658 	"/>
	<polygon id="b0010" style="fill:#FFFFFF;" points="213,299.658 200.5,309.658 213,319.658 225.5,309.658 	"/>
	<polygon id="b0005" style="fill:#FFFFFF;" points="188,339.658 175.5,349.658 188,359.658 200.5,349.658 	"/>
	<polygon id="b0008" style="fill:#FFFFFF;" points="200.5,329.658 188,339.658 200.5,349.658 213,339.658 	"/>
	<polygon id="b0011" style="fill:#FFFFFF;" points="213,319.658 200.5,329.658 213,339.658 225.5,329.658 	"/>
	<polygon id="b0012" style="fill:#FFFFFF;" points="225.5,309.658 213,319.658 225.5,329.658 238,319.658 	"/>
	<polygon id="b0007" style="fill:#FFFFFF;" points="200.5,349.658 188,359.658 200.5,369.658 213,359.658 	"/>
	<polygon id="b0009" style="fill:#FFFFFF;" points="213,339.658 200.5,349.658 213,359.658 225.5,349.658 	"/>
	<polygon id="b0013" style="fill:#FFFFFF;" points="225.5,329.658 213,339.658 225.5,349.658 238,339.658 	"/>
	<polygon id="b0028" style="fill:#FFFFFF;" points="213,132.28 200.5,142.28 213,152.28 225.5,142.28 	"/>
	<polygon id="b0030" style="fill:#FFFFFF;" points="225.5,122.28 213,132.28 225.5,142.28 238,132.28 	"/>
	<polygon id="b0032" style="fill:#FFFFFF;" points="238,112.28 225.5,122.28 238,132.28 250.5,122.28 	"/>
	<polygon id="b0063" style="fill:#FFFFFF;" points="250.5,102.28 238,112.28 250.5,122.28 263,112.28 	"/>
	<polygon id="b0029" style="fill:#FFFFFF;" points="225.5,142.28 213,152.28 225.5,162.28 238,152.28 	"/>
	<polygon id="b0031" style="fill:#FFFFFF;" points="238,132.28 225.5,142.28 238,152.28 250.5,142.28 	"/>
	<polygon id="b0034" style="fill:#FFFFFF;" points="250.5,122.28 238,132.28 250.5,142.28 263,132.28 	"/>
	<polygon id="b0066" style="fill:#FFFFFF;" points="263,112.28 250.5,122.28 263,132.28 275.5,122.28 	"/>
	<polygon id="b0033" style="fill:#FFFFFF;" points="238,152.28 225.5,162.28 238,172.28 250.5,162.28 	"/>
	<polygon id="b0064" style="fill:#FFFFFF;" points="250.5,142.28 238,152.28 250.5,162.28 263,152.28 	"/>
	<polygon id="b0065" style="fill:#FFFFFF;" points="263,132.28 250.5,142.28 263,152.28 275.5,142.28 	"/>
	<polygon id="b0067" style="fill:#FFFFFF;" points="275.5,122.28 263,132.28 275.5,142.28 288,132.28 	"/>
	<polygon id="b0027" style="fill:#FFFFFF;" points="250.5,162.28 238,172.28 250.5,182.28 263,172.28 	"/>
	<polygon id="b0056" style="fill:#FFFFFF;" points="263,152.28 250.5,162.28 263,172.28 275.5,162.28 	"/>
	<polygon id="b0068" style="fill:#FFFFFF;" points="275.5,142.28 263,152.28 275.5,162.28 288,152.28 	"/>
	<polygon id="b0069" style="fill:#FFFFFF;" points="288,132.28 275.5,142.28 288,152.28 300.5,142.28 	"/>
	<polygon id="b0036" style="fill:#FFFFFF;" points="288,308.016 275.5,318.016 288,328.016 300.5,318.016 	"/>
	<polygon id="b0038" style="fill:#FFFFFF;" points="300.5,298.016 288,308.016 300.5,318.016 313,308.016 	"/>
	<polygon id="b0049" style="fill:#FFFFFF;" points="313,288.016 300.5,298.016 313,308.016 325.5,298.016 	"/>
	<polygon id="b0035" style="fill:#FFFFFF;" points="288,328.016 275.5,338.016 288,348.016 300.5,338.016 	"/>
	<polygon id="b0037" style="fill:#FFFFFF;" points="300.5,318.016 288,328.016 300.5,338.016 313,328.016 	"/>
	<polygon id="b0040" style="fill:#FFFFFF;" points="313,308.016 300.5,318.016 313,328.016 325.5,318.016 	"/>
	<polygon id="b0044" style="fill:#FFFFFF;" points="325.5,298.016 313,308.016 325.5,318.016 338,308.016 	"/>
	<polygon id="b0039" style="fill:#FFFFFF;" points="300.5,338.016 288,348.016 300.5,358.016 313,348.016 	"/>
	<polygon id="b0041" style="fill:#FFFFFF;" points="313,328.016 300.5,338.016 313,348.016 325.5,338.016 	"/>
	<polygon id="b0045" style="fill:#FFFFFF;" points="325.5,318.016 313,328.016 325.5,338.016 338,328.016 	"/>
	<polygon id="b0047" style="fill:#FFFFFF;" points="338,308.016 325.5,318.016 338,328.016 350.5,318.016 	"/>
	<polygon id="b0042" style="fill:#FFFFFF;" points="313,348.016 300.5,358.016 313,368.016 325.5,358.016 	"/>
	<polygon id="b0043" style="fill:#FFFFFF;" points="325.5,338.016 313,348.016 325.5,358.016 338,348.016 	"/>
	<polygon id="b0046" style="fill:#FFFFFF;" points="338,328.016 325.5,338.016 338,348.016 350.5,338.016 	"/>
	<polygon id="b0048" style="fill:#FFFFFF;" points="350.5,318.016 338,328.016 350.5,338.016 363,328.016 	"/>
</g>
<g id="VuMark-Origin">
	
		<circle id="VuMark_Origin_Locator" style="fill:none;stroke:#EC008C;stroke-width:0.75;stroke-miterlimit:10;" cx="250.5" cy="250.5" r="10"/>
</g>
<g id="VuMark-Contour">
	<polygon id="contour" style="fill:none;stroke:#EC008C;stroke-miterlimit:10;" points="249.517,25.5 50.264,137.282 
		51.011,362.282 251.011,475.5 450.264,363.718 449.517,138.718 	"/>
</g>
<g id="VuMark-AsymmetryMarker">
</g>
<g id="VuMark-Feedback">
	
		<circle id="c0014" style="fill-rule:evenodd;clip-rule:evenodd;fill:none;stroke:#EC008C;stroke-width:0.75;stroke-miterlimit:10;" cx="108.584" cy="192.649" r="7.515"/>
	
		<circle id="c0016" style="fill-rule:evenodd;clip-rule:evenodd;fill:none;stroke:#EC008C;stroke-width:0.75;stroke-miterlimit:10;" cx="121.143" cy="202.696" r="7.515"/>
	
		<circle id="c0015" style="fill-rule:evenodd;clip-rule:evenodd;fill:none;stroke:#EC008C;stroke-width:0.75;stroke-miterlimit:10;" cx="121.143" cy="182.603" r="7.515"/>
	
		<circle id="c0017" style="fill-rule:evenodd;clip-rule:evenodd;fill:none;stroke:#EC008C;stroke-width:0.75;stroke-miterlimit:10;" cx="133.556" cy="212.711" r="7.515"/>
	
		<circle id="c0018" style="fill-rule:evenodd;clip-rule:evenodd;fill:none;stroke:#EC008C;stroke-width:0.75;stroke-miterlimit:10;" cx="133.701" cy="172.556" r="7.515"/>
	
		<circle id="c0019" style="fill-rule:evenodd;clip-rule:evenodd;fill:none;stroke:#EC008C;stroke-width:0.75;stroke-miterlimit:10;" cx="133.701" cy="192.649" r="7.515"/>
	
		<circle id="c0020" style="fill-rule:evenodd;clip-rule:evenodd;fill:none;stroke:#EC008C;stroke-width:0.75;stroke-miterlimit:10;" cx="146.087" cy="202.711" r="7.515"/>
	
		<circle id="c0021" style="fill-rule:evenodd;clip-rule:evenodd;fill:none;stroke:#EC008C;stroke-width:0.75;stroke-miterlimit:10;" cx="146.087" cy="162.711" r="7.515"/>
	
		<circle id="c0022" style="fill-rule:evenodd;clip-rule:evenodd;fill:none;stroke:#EC008C;stroke-width:0.75;stroke-miterlimit:10;" cx="146.26" cy="182.603" r="7.515"/>
	
		<circle id="c0023" style="fill-rule:evenodd;clip-rule:evenodd;fill:none;stroke:#EC008C;stroke-width:0.75;stroke-miterlimit:10;" cx="158.587" cy="192.711" r="7.515"/>
	
		<circle id="c0024" style="fill-rule:evenodd;clip-rule:evenodd;fill:none;stroke:#EC008C;stroke-width:0.75;stroke-miterlimit:10;" cx="158.587" cy="172.711" r="7.515"/>
	
		<circle id="c0000" style="fill-rule:evenodd;clip-rule:evenodd;fill:none;stroke:#EC008C;stroke-width:0.75;stroke-miterlimit:10;" cx="163.795" cy="329.469" r="7.515"/>
	
		<circle id="c0025" style="fill-rule:evenodd;clip-rule:evenodd;fill:none;stroke:#EC008C;stroke-width:0.75;stroke-miterlimit:10;" cx="171.087" cy="182.711" r="7.515"/>
	
		<circle id="c0002" style="fill-rule:evenodd;clip-rule:evenodd;fill:none;stroke:#EC008C;stroke-width:0.75;stroke-miterlimit:10;" cx="176.295" cy="339.469" r="7.515"/>
	
		<circle id="c0001" style="fill-rule:evenodd;clip-rule:evenodd;fill:none;stroke:#EC008C;stroke-width:0.75;stroke-miterlimit:10;" cx="176.295" cy="319.469" r="7.515"/>
	
		<circle id="c0005" style="fill-rule:evenodd;clip-rule:evenodd;fill:none;stroke:#EC008C;stroke-width:0.75;stroke-miterlimit:10;" cx="188.795" cy="349.469" r="7.515"/>
	
		<circle id="c0004" style="fill-rule:evenodd;clip-rule:evenodd;fill:none;stroke:#EC008C;stroke-width:0.75;stroke-miterlimit:10;" cx="188.795" cy="309.469" r="7.515"/>
	
		<circle id="c0003" style="fill-rule:evenodd;clip-rule:evenodd;fill:none;stroke:#EC008C;stroke-width:0.75;stroke-miterlimit:10;" cx="188.795" cy="329.469" r="7.515"/>
	
		<circle id="c0026" style="fill-rule:evenodd;clip-rule:evenodd;fill:none;stroke:#EC008C;stroke-width:0.75;stroke-miterlimit:10;" cx="201.295" cy="299.469" r="7.515"/>
	
		<circle id="c0008" style="fill-rule:evenodd;clip-rule:evenodd;fill:none;stroke:#EC008C;stroke-width:0.75;stroke-miterlimit:10;" cx="201.295" cy="339.469" r="7.515"/>
	
		<circle id="c0006" style="fill-rule:evenodd;clip-rule:evenodd;fill:none;stroke:#EC008C;stroke-width:0.75;stroke-miterlimit:10;" cx="201.295" cy="319.469" r="7.515"/>
	
		<circle id="c0007" style="fill-rule:evenodd;clip-rule:evenodd;fill:none;stroke:#EC008C;stroke-width:0.75;stroke-miterlimit:10;" cx="201.295" cy="359.469" r="7.515"/>
	
		<circle id="c0028" style="fill-rule:evenodd;clip-rule:evenodd;fill:none;stroke:#EC008C;stroke-width:0.75;stroke-miterlimit:10;" cx="213.795" cy="142.091" r="7.515"/>
	
		<circle id="c0010" style="fill-rule:evenodd;clip-rule:evenodd;fill:none;stroke:#EC008C;stroke-width:0.75;stroke-miterlimit:10;" cx="213.795" cy="309.469" r="7.515"/>
	
		<circle id="c0011" style="fill-rule:evenodd;clip-rule:evenodd;fill:none;stroke:#EC008C;stroke-width:0.75;stroke-miterlimit:10;" cx="213.795" cy="329.469" r="7.515"/>
	
		<circle id="c0009" style="fill-rule:evenodd;clip-rule:evenodd;fill:none;stroke:#EC008C;stroke-width:0.75;stroke-miterlimit:10;" cx="213.795" cy="349.469" r="7.515"/>
	
		<circle id="c0029" style="fill-rule:evenodd;clip-rule:evenodd;fill:none;stroke:#EC008C;stroke-width:0.75;stroke-miterlimit:10;" cx="226.295" cy="152.091" r="7.515"/>
	
		<circle id="c0030" style="fill-rule:evenodd;clip-rule:evenodd;fill:none;stroke:#EC008C;stroke-width:0.75;stroke-miterlimit:10;" cx="226.295" cy="132.091" r="7.515"/>
	
		<circle id="c0013" style="fill-rule:evenodd;clip-rule:evenodd;fill:none;stroke:#EC008C;stroke-width:0.75;stroke-miterlimit:10;" cx="226.295" cy="339.469" r="7.515"/>
	
		<circle id="c0012" style="fill-rule:evenodd;clip-rule:evenodd;fill:none;stroke:#EC008C;stroke-width:0.75;stroke-miterlimit:10;" cx="226.295" cy="319.469" r="7.515"/>
	
		<circle id="c0032" style="fill-rule:evenodd;clip-rule:evenodd;fill:none;stroke:#EC008C;stroke-width:0.75;stroke-miterlimit:10;" cx="238.795" cy="122.091" r="7.515"/>
	
		<circle id="c0031" style="fill-rule:evenodd;clip-rule:evenodd;fill:none;stroke:#EC008C;stroke-width:0.75;stroke-miterlimit:10;" cx="238.795" cy="142.091" r="7.515"/>
	
		<circle id="c0033" style="fill-rule:evenodd;clip-rule:evenodd;fill:none;stroke:#EC008C;stroke-width:0.75;stroke-miterlimit:10;" cx="238.795" cy="162.091" r="7.515"/>
	
		<circle id="c0034" style="fill-rule:evenodd;clip-rule:evenodd;fill:none;stroke:#EC008C;stroke-width:0.75;stroke-miterlimit:10;" cx="251.295" cy="132.091" r="7.515"/>
	
		<circle id="c0027" style="fill-rule:evenodd;clip-rule:evenodd;fill:none;stroke:#EC008C;stroke-width:0.75;stroke-miterlimit:10;" cx="251.295" cy="172.091" r="7.515"/>
	
		<circle id="c0064" style="fill-rule:evenodd;clip-rule:evenodd;fill:none;stroke:#EC008C;stroke-width:0.75;stroke-miterlimit:10;" cx="251.295" cy="152.091" r="7.515"/>
	
		<circle id="c0063" style="fill-rule:evenodd;clip-rule:evenodd;fill:none;stroke:#EC008C;stroke-width:0.75;stroke-miterlimit:10;" cx="251.295" cy="112.091" r="7.515"/>
	
		<circle id="c0066" style="fill-rule:evenodd;clip-rule:evenodd;fill:none;stroke:#EC008C;stroke-width:0.75;stroke-miterlimit:10;" cx="263.795" cy="122.091" r="7.515"/>
	
		<circle id="c0065" style="fill-rule:evenodd;clip-rule:evenodd;fill:none;stroke:#EC008C;stroke-width:0.75;stroke-miterlimit:10;" cx="263.795" cy="142.091" r="7.515"/>
	
		<circle id="c0056" style="fill-rule:evenodd;clip-rule:evenodd;fill:none;stroke:#EC008C;stroke-width:0.75;stroke-miterlimit:10;" cx="263.795" cy="162.091" r="7.515"/>
	
		<circle id="c0068" style="fill-rule:evenodd;clip-rule:evenodd;fill:none;stroke:#EC008C;stroke-width:0.75;stroke-miterlimit:10;" cx="276.295" cy="152.091" r="7.515"/>
	
		<circle id="c0067" style="fill-rule:evenodd;clip-rule:evenodd;fill:none;stroke:#EC008C;stroke-width:0.75;stroke-miterlimit:10;" cx="276.295" cy="132.091" r="7.515"/>
	
		<circle id="c0069" style="fill-rule:evenodd;clip-rule:evenodd;fill:none;stroke:#EC008C;stroke-width:0.75;stroke-miterlimit:10;" cx="288.795" cy="142.091" r="7.515"/>
	
		<circle id="c0036" style="fill-rule:evenodd;clip-rule:evenodd;fill:none;stroke:#EC008C;stroke-width:0.75;stroke-miterlimit:10;" cx="288.795" cy="317.827" r="7.515"/>
	
		<circle id="c0035" style="fill-rule:evenodd;clip-rule:evenodd;fill:none;stroke:#EC008C;stroke-width:0.75;stroke-miterlimit:10;" cx="288.795" cy="337.827" r="7.515"/>
	
		<circle id="c0037" style="fill-rule:evenodd;clip-rule:evenodd;fill:none;stroke:#EC008C;stroke-width:0.75;stroke-miterlimit:10;" cx="301.295" cy="327.827" r="7.515"/>
	
		<circle id="c0039" style="fill-rule:evenodd;clip-rule:evenodd;fill:none;stroke:#EC008C;stroke-width:0.75;stroke-miterlimit:10;" cx="301.295" cy="347.827" r="7.515"/>
	
		<circle id="c0038" style="fill-rule:evenodd;clip-rule:evenodd;fill:none;stroke:#EC008C;stroke-width:0.75;stroke-miterlimit:10;" cx="301.295" cy="307.827" r="7.515"/>
	
		<circle id="c0042" style="fill-rule:evenodd;clip-rule:evenodd;fill:none;stroke:#EC008C;stroke-width:0.75;stroke-miterlimit:10;" cx="313.795" cy="357.827" r="7.515"/>
	
		<circle id="c0049" style="fill-rule:evenodd;clip-rule:evenodd;fill:none;stroke:#EC008C;stroke-width:0.75;stroke-miterlimit:10;" cx="313.795" cy="297.827" r="7.515"/>
	
		<circle id="c0040" style="fill-rule:evenodd;clip-rule:evenodd;fill:none;stroke:#EC008C;stroke-width:0.75;stroke-miterlimit:10;" cx="313.795" cy="317.827" r="7.515"/>
	
		<circle id="c0041" style="fill-rule:evenodd;clip-rule:evenodd;fill:none;stroke:#EC008C;stroke-width:0.75;stroke-miterlimit:10;" cx="313.795" cy="337.827" r="7.515"/>
	
		<circle id="c0045" style="fill-rule:evenodd;clip-rule:evenodd;fill:none;stroke:#EC008C;stroke-width:0.75;stroke-miterlimit:10;" cx="326.295" cy="327.827" r="7.515"/>
	
		<circle id="c0043" style="fill-rule:evenodd;clip-rule:evenodd;fill:none;stroke:#EC008C;stroke-width:0.75;stroke-miterlimit:10;" cx="326.295" cy="347.827" r="7.515"/>
	
		<circle id="c0044" style="fill-rule:evenodd;clip-rule:evenodd;fill:none;stroke:#EC008C;stroke-width:0.75;stroke-miterlimit:10;" cx="326.295" cy="307.827" r="7.515"/>
	
		<circle id="c0057" style="fill-rule:evenodd;clip-rule:evenodd;fill:none;stroke:#EC008C;stroke-width:0.75;stroke-miterlimit:10;" cx="328.975" cy="182.649" r="7.515"/>
	
		<circle id="c0046" style="fill-rule:evenodd;clip-rule:evenodd;fill:none;stroke:#EC008C;stroke-width:0.75;stroke-miterlimit:10;" cx="338.795" cy="337.827" r="7.515"/>
	
		<circle id="c0047" style="fill-rule:evenodd;clip-rule:evenodd;fill:none;stroke:#EC008C;stroke-width:0.75;stroke-miterlimit:10;" cx="338.795" cy="317.827" r="7.515"/>
	
		<circle id="c0058" style="fill-rule:evenodd;clip-rule:evenodd;fill:none;stroke:#EC008C;stroke-width:0.75;stroke-miterlimit:10;" cx="341.475" cy="172.649" r="7.515"/>
	
		<circle id="c0050" style="fill-rule:evenodd;clip-rule:evenodd;fill:none;stroke:#EC008C;stroke-width:0.75;stroke-miterlimit:10;" cx="341.475" cy="192.649" r="7.515"/>
	
		<circle id="c0048" style="fill-rule:evenodd;clip-rule:evenodd;fill:none;stroke:#EC008C;stroke-width:0.75;stroke-miterlimit:10;" cx="351.295" cy="327.827" r="7.515"/>
	
		<circle id="c0060" style="fill-rule:evenodd;clip-rule:evenodd;fill:none;stroke:#EC008C;stroke-width:0.75;stroke-miterlimit:10;" cx="353.975" cy="182.649" r="7.515"/>
	
		<circle id="c0051" style="fill-rule:evenodd;clip-rule:evenodd;fill:none;stroke:#EC008C;stroke-width:0.75;stroke-miterlimit:10;" cx="353.975" cy="202.649" r="7.515"/>
	
		<circle id="c0059" style="fill-rule:evenodd;clip-rule:evenodd;fill:none;stroke:#EC008C;stroke-width:0.75;stroke-miterlimit:10;" cx="353.975" cy="162.649" r="7.515"/>
	
		<circle id="c0052" style="fill-rule:evenodd;clip-rule:evenodd;fill:none;stroke:#EC008C;stroke-width:0.75;stroke-miterlimit:10;" cx="366.475" cy="192.649" r="7.515"/>
	
		<circle id="c0061" style="fill-rule:evenodd;clip-rule:evenodd;fill:none;stroke:#EC008C;stroke-width:0.75;stroke-miterlimit:10;" cx="366.475" cy="172.649" r="7.515"/>
	
		<circle id="c0053" style="fill-rule:evenodd;clip-rule:evenodd;fill:none;stroke:#EC008C;stroke-width:0.75;stroke-miterlimit:10;" cx="366.475" cy="212.649" r="7.515"/>
	
		<circle id="c0054" style="fill-rule:evenodd;clip-rule:evenodd;fill:none;stroke:#EC008C;stroke-width:0.75;stroke-miterlimit:10;" cx="378.975" cy="202.649" r="7.515"/>
	
		<circle id="c0062" style="fill-rule:evenodd;clip-rule:evenodd;fill:none;stroke:#EC008C;stroke-width:0.75;stroke-miterlimit:10;" cx="378.975" cy="182.649" r="7.515"/>
	
		<circle id="c0055" style="fill-rule:evenodd;clip-rule:evenodd;fill:none;stroke:#EC008C;stroke-width:0.75;stroke-miterlimit:10;" cx="391.475" cy="192.649" r="7.515"/>
	<polygon style="fill:none;stroke:#EC008C;stroke-miterlimit:10;" points="51.011,362.282 50.264,137.282 249.517,25.5 
		449.518,138.718 450.265,363.718 251.011,475.5 	"/>
	<path id="MinimumContourClearSpace" style="opacity:0.5;fill-rule:evenodd;clip-rule:evenodd;fill:#EC008C;" d="M36.01,371.062
		l-0.805-242.564L249.55,8.248l214.968,121.691l0.806,242.564L250.978,492.752L36.01,371.062z M66.012,353.503l-0.689-207.436
		L249.484,42.752l185.033,104.745l0.688,207.435L251.044,458.248L66.012,353.503z"/>
</g>
<g id="VuMark-Description">
	<g id="VuMark:myVumark">
		<path d="M-377.813-80.456l-2.65-8.084h1.139l1.259,3.982c0.336,1.091,0.636,2.074,0.864,3.022h0.024
			c0.228-0.936,0.552-1.955,0.923-3.011l1.367-3.994h1.116l-2.891,8.084H-377.813z"/>
		<path d="M-368.287-82.051c0,0.611,0.012,1.139,0.048,1.595h-0.936l-0.06-0.947h-0.024c-0.264,0.468-0.887,1.079-1.919,1.079
			c-0.911,0-2.003-0.516-2.003-2.543v-3.394h1.056v3.202c0,1.104,0.348,1.859,1.295,1.859c0.708,0,1.199-0.492,1.391-0.972
			c0.06-0.145,0.096-0.336,0.096-0.54v-3.55h1.056V-82.051z"/>
		<path d="M-359.685-84.006c-0.06-1.128-0.132-2.495-0.132-3.49h-0.024c-0.288,0.936-0.612,1.955-1.02,3.07l-1.427,3.922h-0.792
			l-1.319-3.85c-0.384-1.151-0.695-2.184-0.923-3.143h-0.024c-0.024,1.008-0.084,2.351-0.156,3.574l-0.216,3.466h-0.995l0.563-8.084
			h1.332l1.379,3.91c0.336,0.995,0.6,1.883,0.815,2.723h0.024c0.216-0.815,0.503-1.703,0.863-2.723l1.439-3.91h1.331l0.504,8.084
			h-1.032L-359.685-84.006z"/>
		<path d="M-352.735-81.848c0,0.504,0.024,0.996,0.084,1.392h-0.947l-0.084-0.731h-0.036c-0.324,0.456-0.947,0.863-1.775,0.863
			c-1.175,0-1.775-0.827-1.775-1.667c0-1.403,1.247-2.171,3.49-2.159v-0.119c0-0.468-0.132-1.344-1.319-1.332
			c-0.551,0-1.115,0.156-1.523,0.432l-0.24-0.707c0.479-0.3,1.188-0.504,1.919-0.504c1.775,0,2.207,1.211,2.207,2.362V-81.848z
			 M-353.754-83.418c-1.151-0.024-2.459,0.18-2.459,1.307c0,0.696,0.456,1.008,0.983,1.008c0.768,0,1.259-0.479,1.427-0.972
			c0.036-0.12,0.048-0.24,0.048-0.336V-83.418z"/>
		<path d="M-351.029-84.45c0-0.684-0.012-1.271-0.048-1.811h0.923l0.048,1.151h0.036c0.264-0.779,0.912-1.271,1.619-1.271
			c0.108,0,0.192,0.012,0.288,0.024v0.995c-0.108-0.024-0.216-0.024-0.36-0.024c-0.744,0-1.271,0.552-1.416,1.344
			c-0.024,0.144-0.036,0.324-0.036,0.491v3.095h-1.056V-84.45z"/>
		<path d="M-346.013-83.599h0.024c0.144-0.203,0.336-0.455,0.504-0.659l1.715-2.003h1.259l-2.23,2.387l2.554,3.418h-1.295
			l-1.991-2.782l-0.54,0.6v2.183h-1.043v-8.516h1.043V-83.599z"/>
		<path d="M-341.549-85.302c0-0.443,0.3-0.755,0.708-0.755c0.432,0,0.708,0.312,0.708,0.755c0,0.42-0.276,0.744-0.72,0.744
			C-341.261-84.558-341.549-84.882-341.549-85.302z M-341.549-81.067c0-0.444,0.3-0.756,0.708-0.756
			c0.432,0,0.708,0.312,0.708,0.756c0,0.42-0.276,0.743-0.72,0.743C-341.261-80.324-341.549-80.647-341.549-81.067z"/>
		<path d="M-331.193-84.689c0-0.612-0.024-1.092-0.048-1.571h0.923l0.048,0.947h0.036c0.324-0.552,0.864-1.067,1.835-1.067
			c0.78,0,1.379,0.479,1.631,1.163h0.024c0.18-0.336,0.419-0.575,0.66-0.755c0.348-0.265,0.719-0.408,1.271-0.408
			c0.78,0,1.919,0.504,1.919,2.519v3.406h-1.031v-3.274c0-1.127-0.42-1.787-1.259-1.787c-0.612,0-1.067,0.444-1.259,0.948
			c-0.048,0.155-0.084,0.335-0.084,0.527v3.586h-1.032v-3.479c0-0.923-0.408-1.583-1.211-1.583c-0.648,0-1.14,0.528-1.308,1.056
			c-0.06,0.144-0.084,0.336-0.084,0.516v3.49h-1.031V-84.689z"/>
		<path d="M-320.958-86.261l1.259,3.43c0.144,0.384,0.288,0.84,0.384,1.188h0.024c0.108-0.348,0.228-0.791,0.372-1.211l1.151-3.406
			h1.115l-1.583,4.138c-0.756,1.991-1.271,2.998-1.991,3.634c-0.527,0.444-1.031,0.624-1.295,0.672l-0.264-0.876
			c0.264-0.084,0.612-0.252,0.924-0.516c0.288-0.228,0.635-0.636,0.887-1.175c0.048-0.108,0.084-0.192,0.084-0.252
			c0-0.061-0.024-0.145-0.084-0.276l-2.135-5.349H-320.958z"/>
		<path d="M-313.878-80.456l-2.65-8.084h1.139l1.259,3.982c0.336,1.091,0.636,2.074,0.864,3.022h0.024
			c0.228-0.936,0.552-1.955,0.923-3.011l1.367-3.994h1.116l-2.891,8.084H-313.878z"/>
		<path d="M-304.352-82.051c0,0.611,0.012,1.139,0.048,1.595h-0.936l-0.06-0.947h-0.024c-0.264,0.468-0.887,1.079-1.919,1.079
			c-0.911,0-2.003-0.516-2.003-2.543v-3.394h1.056v3.202c0,1.104,0.348,1.859,1.295,1.859c0.708,0,1.199-0.492,1.391-0.972
			c0.06-0.145,0.096-0.336,0.096-0.54v-3.55h1.056V-82.051z"/>
		<path d="M-302.597-84.689c0-0.612-0.024-1.092-0.048-1.571h0.923l0.048,0.947h0.036c0.324-0.552,0.864-1.067,1.835-1.067
			c0.78,0,1.379,0.479,1.631,1.163h0.024c0.18-0.336,0.419-0.575,0.66-0.755c0.348-0.265,0.719-0.408,1.271-0.408
			c0.78,0,1.919,0.504,1.919,2.519v3.406h-1.031v-3.274c0-1.127-0.42-1.787-1.259-1.787c-0.612,0-1.067,0.444-1.259,0.948
			c-0.048,0.155-0.084,0.335-0.084,0.527v3.586h-1.031v-3.479c0-0.923-0.408-1.583-1.211-1.583c-0.648,0-1.14,0.528-1.308,1.056
			c-0.06,0.144-0.084,0.336-0.084,0.516v3.49h-1.031V-84.689z"/>
		<path d="M-288.512-81.848c0,0.504,0.024,0.996,0.084,1.392h-0.947l-0.084-0.731h-0.036c-0.324,0.456-0.947,0.863-1.775,0.863
			c-1.175,0-1.775-0.827-1.775-1.667c0-1.403,1.247-2.171,3.49-2.159v-0.119c0-0.468-0.132-1.344-1.319-1.332
			c-0.552,0-1.116,0.156-1.523,0.432l-0.24-0.707c0.479-0.3,1.187-0.504,1.919-0.504c1.775,0,2.207,1.211,2.207,2.362V-81.848z
			 M-289.531-83.418c-1.151-0.024-2.458,0.18-2.458,1.307c0,0.696,0.456,1.008,0.983,1.008c0.768,0,1.259-0.479,1.427-0.972
			c0.036-0.12,0.048-0.24,0.048-0.336V-83.418z"/>
		<path d="M-286.805-84.45c0-0.684-0.012-1.271-0.048-1.811h0.923l0.048,1.151h0.036c0.264-0.779,0.912-1.271,1.619-1.271
			c0.108,0,0.192,0.012,0.288,0.024v0.995c-0.108-0.024-0.216-0.024-0.36-0.024c-0.744,0-1.271,0.552-1.416,1.344
			c-0.024,0.144-0.036,0.324-0.036,0.491v3.095h-1.056V-84.45z"/>
		<path d="M-281.79-83.599h0.024c0.144-0.203,0.336-0.455,0.504-0.659l1.715-2.003h1.259l-2.23,2.387l2.554,3.418h-1.295
			l-1.991-2.782l-0.54,0.6v2.183h-1.043v-8.516h1.043V-83.599z"/>
	</g>
	<g id="IDtype:string">
		<path d="M-378.545-73.54v8.084h-1.056v-8.084H-378.545z"/>
		<path d="M-376.72-73.42c0.636-0.107,1.391-0.18,2.219-0.18c1.499,0,2.566,0.359,3.274,1.008c0.732,0.659,1.151,1.595,1.151,2.902
			c0,1.319-0.419,2.398-1.163,3.142c-0.768,0.756-2.015,1.164-3.586,1.164c-0.756,0-1.367-0.036-1.895-0.097V-73.42z
			 M-375.677-66.271c0.264,0.036,0.647,0.048,1.055,0.048c2.243,0,3.442-1.247,3.442-3.43c0.012-1.907-1.067-3.119-3.274-3.119
			c-0.54,0-0.947,0.049-1.223,0.108V-66.271z"/>
		<path d="M-367.289-72.652v1.392h1.511v0.804h-1.511v3.13c0,0.72,0.204,1.128,0.792,1.128c0.288,0,0.456-0.024,0.612-0.072
			l0.048,0.804c-0.204,0.071-0.528,0.144-0.936,0.144c-0.492,0-0.888-0.168-1.14-0.443c-0.288-0.324-0.408-0.84-0.408-1.523v-3.166
			h-0.899v-0.804h0.899v-1.079L-367.289-72.652z"/>
		<path d="M-364.097-71.261l1.259,3.43c0.144,0.384,0.288,0.84,0.384,1.188h0.024c0.108-0.348,0.228-0.791,0.372-1.211l1.151-3.406
			h1.115l-1.583,4.138c-0.756,1.991-1.271,2.998-1.991,3.634c-0.527,0.444-1.031,0.624-1.295,0.672l-0.264-0.876
			c0.264-0.084,0.612-0.252,0.924-0.516c0.288-0.228,0.635-0.636,0.887-1.175c0.048-0.108,0.084-0.192,0.084-0.252
			c0-0.061-0.024-0.145-0.084-0.276l-2.135-5.349H-364.097z"/>
		<path d="M-358.829-69.366c0-0.743-0.024-1.343-0.048-1.895h0.936l0.06,0.995h0.024c0.419-0.707,1.115-1.115,2.063-1.115
			c1.416,0,2.471,1.188,2.471,2.938c0,2.087-1.283,3.118-2.65,3.118c-0.768,0-1.439-0.336-1.787-0.911h-0.024v3.154h-1.043V-69.366z
			 M-357.786-67.818c0,0.155,0.012,0.3,0.048,0.432c0.192,0.731,0.828,1.235,1.583,1.235c1.115,0,1.763-0.912,1.763-2.243
			c0-1.151-0.611-2.146-1.727-2.146c-0.72,0-1.403,0.504-1.595,1.295c-0.036,0.132-0.072,0.288-0.072,0.42V-67.818z"/>
		<path d="M-351.414-68.167c0.024,1.428,0.923,2.016,1.991,2.016c0.755,0,1.223-0.132,1.607-0.3l0.192,0.755
			c-0.372,0.168-1.019,0.372-1.943,0.372c-1.787,0-2.854-1.188-2.854-2.938s1.032-3.118,2.723-3.118
			c1.907,0,2.399,1.655,2.399,2.723c0,0.216-0.012,0.372-0.036,0.491H-351.414z M-348.319-68.922
			c0.012-0.66-0.276-1.703-1.463-1.703c-1.08,0-1.535,0.972-1.619,1.703H-348.319z"/>
		<path d="M-346.229-70.302c0-0.443,0.3-0.755,0.708-0.755c0.432,0,0.708,0.312,0.708,0.755c0,0.42-0.276,0.744-0.72,0.744
			C-345.941-69.558-346.229-69.882-346.229-70.302z M-346.229-66.067c0-0.444,0.3-0.756,0.708-0.756
			c0.432,0,0.708,0.312,0.708,0.756c0,0.42-0.276,0.743-0.72,0.743C-345.941-65.324-346.229-65.647-346.229-66.067z"/>
		<path d="M-336.018-66.523c0.324,0.191,0.875,0.408,1.403,0.408c0.756,0,1.115-0.372,1.115-0.864c0-0.504-0.3-0.768-1.067-1.055
			c-1.055-0.384-1.547-0.948-1.547-1.644c0-0.936,0.768-1.703,2.003-1.703c0.587,0,1.103,0.156,1.415,0.36l-0.252,0.768
			c-0.228-0.145-0.647-0.349-1.187-0.349c-0.624,0-0.959,0.36-0.959,0.792c0,0.479,0.335,0.695,1.091,0.995
			c0.995,0.372,1.523,0.876,1.523,1.739c0,1.031-0.803,1.751-2.159,1.751c-0.636,0-1.223-0.168-1.631-0.407L-336.018-66.523z"/>
		<path d="M-329.851-72.652v1.392h1.511v0.804h-1.511v3.13c0,0.72,0.204,1.128,0.792,1.128c0.288,0,0.456-0.024,0.612-0.072
			l0.048,0.804c-0.204,0.071-0.528,0.144-0.936,0.144c-0.492,0-0.888-0.168-1.14-0.443c-0.288-0.324-0.408-0.84-0.408-1.523v-3.166
			h-0.899v-0.804h0.899v-1.079L-329.851-72.652z"/>
		<path d="M-327.15-69.45c0-0.684-0.012-1.271-0.048-1.811h0.923l0.048,1.151h0.036c0.264-0.779,0.912-1.271,1.619-1.271
			c0.108,0,0.192,0.012,0.288,0.024v0.995c-0.108-0.024-0.216-0.024-0.36-0.024c-0.744,0-1.271,0.552-1.416,1.344
			c-0.024,0.144-0.036,0.324-0.036,0.491v3.095h-1.056V-69.45z"/>
		<path d="M-322.003-72.892c0,0.359-0.252,0.647-0.671,0.647c-0.384,0-0.636-0.288-0.636-0.647c0-0.36,0.264-0.66,0.66-0.66
			C-322.267-73.552-322.003-73.264-322.003-72.892z M-323.178-65.456v-5.805h1.056v5.805H-323.178z"/>
		<path d="M-320.37-69.689c0-0.612-0.012-1.092-0.048-1.571h0.936l0.06,0.959h0.024c0.288-0.539,0.959-1.079,1.919-1.079
			c0.803,0,2.051,0.479,2.051,2.471v3.454h-1.056v-3.346c0-0.936-0.348-1.716-1.343-1.716c-0.684,0-1.223,0.492-1.415,1.08
			c-0.048,0.132-0.072,0.312-0.072,0.491v3.49h-1.056V-69.689z"/>
		<path d="M-308.745-66.308c0,1.344-0.276,2.146-0.828,2.662c-0.576,0.517-1.391,0.696-2.123,0.696
			c-0.696,0-1.463-0.168-1.931-0.479l0.264-0.816c0.384,0.252,0.984,0.468,1.703,0.468c1.08,0,1.871-0.563,1.871-2.038v-0.636
			h-0.024c-0.312,0.539-0.948,0.971-1.847,0.971c-1.439,0-2.471-1.223-2.471-2.83c0-1.967,1.284-3.07,2.627-3.07
			c1.007,0,1.547,0.516,1.811,0.995h0.024l0.036-0.875h0.936c-0.036,0.407-0.048,0.888-0.048,1.583V-66.308z M-309.801-68.97
			c0-0.181-0.012-0.336-0.06-0.468c-0.192-0.624-0.696-1.128-1.476-1.128c-1.007,0-1.727,0.852-1.727,2.195
			c0,1.139,0.588,2.087,1.715,2.087c0.66,0,1.247-0.408,1.463-1.08c0.06-0.18,0.084-0.384,0.084-0.563V-68.97z"/>
	</g>
	<g id="IDlength:6">
		<path d="M-378.545-58.54v8.084h-1.056v-8.084H-378.545z"/>
		<path d="M-376.72-58.42c0.636-0.107,1.391-0.18,2.219-0.18c1.499,0,2.566,0.359,3.274,1.008c0.732,0.659,1.151,1.595,1.151,2.902
			c0,1.319-0.419,2.398-1.163,3.142c-0.768,0.756-2.015,1.164-3.586,1.164c-0.756,0-1.367-0.036-1.895-0.097V-58.42z
			 M-375.677-51.271c0.264,0.036,0.647,0.048,1.055,0.048c2.243,0,3.442-1.247,3.442-3.43c0.012-1.907-1.067-3.119-3.274-3.119
			c-0.54,0-0.947,0.049-1.223,0.108V-51.271z"/>
		<path d="M-368.765-58.972h1.056v8.516h-1.056V-58.972z"/>
		<path d="M-365.345-53.167c0.024,1.428,0.923,2.016,1.991,2.016c0.755,0,1.223-0.132,1.607-0.3l0.192,0.755
			c-0.372,0.168-1.019,0.372-1.943,0.372c-1.787,0-2.854-1.188-2.854-2.938s1.032-3.118,2.723-3.118
			c1.907,0,2.399,1.655,2.399,2.723c0,0.216-0.012,0.372-0.036,0.491H-365.345z M-362.25-53.922c0.012-0.66-0.276-1.703-1.463-1.703
			c-1.079,0-1.535,0.972-1.619,1.703H-362.25z"/>
		<path d="M-359.921-54.689c0-0.612-0.012-1.092-0.048-1.571h0.936l0.06,0.959h0.024c0.288-0.539,0.959-1.079,1.919-1.079
			c0.803,0,2.051,0.479,2.051,2.471v3.454h-1.056v-3.346c0-0.936-0.348-1.716-1.343-1.716c-0.684,0-1.223,0.492-1.415,1.08
			c-0.048,0.132-0.072,0.312-0.072,0.491v3.49h-1.056V-54.689z"/>
		<path d="M-348.296-51.308c0,1.344-0.276,2.146-0.828,2.662c-0.576,0.517-1.391,0.696-2.123,0.696
			c-0.696,0-1.463-0.168-1.931-0.479l0.264-0.816c0.384,0.252,0.984,0.468,1.703,0.468c1.08,0,1.871-0.563,1.871-2.038v-0.636
			h-0.024c-0.312,0.539-0.948,0.971-1.847,0.971c-1.439,0-2.471-1.223-2.471-2.83c0-1.967,1.284-3.07,2.627-3.07
			c1.007,0,1.547,0.516,1.811,0.995h0.024l0.036-0.875h0.936c-0.036,0.407-0.048,0.888-0.048,1.583V-51.308z M-349.352-53.97
			c0-0.181-0.012-0.336-0.06-0.468c-0.192-0.624-0.696-1.128-1.476-1.128c-1.007,0-1.727,0.852-1.727,2.195
			c0,1.139,0.588,2.087,1.715,2.087c0.66,0,1.247-0.408,1.463-1.08c0.06-0.18,0.084-0.384,0.084-0.563V-53.97z"/>
		<path d="M-345.282-57.652v1.392h1.511v0.804h-1.511v3.13c0,0.72,0.204,1.128,0.792,1.128c0.288,0,0.456-0.024,0.611-0.072
			l0.048,0.804c-0.204,0.071-0.528,0.144-0.936,0.144c-0.492,0-0.888-0.168-1.14-0.443c-0.288-0.324-0.408-0.84-0.408-1.523v-3.166
			h-0.899v-0.804h0.899v-1.079L-345.282-57.652z"/>
		<path d="M-342.581-58.972h1.056v3.635h0.024c0.168-0.301,0.432-0.576,0.755-0.756c0.312-0.18,0.684-0.288,1.08-0.288
			c0.779,0,2.027,0.479,2.027,2.471v3.454h-1.056v-3.334c0-0.936-0.348-1.715-1.343-1.715c-0.684,0-1.211,0.479-1.415,1.043
			c-0.06,0.156-0.072,0.312-0.072,0.504v3.502h-1.056V-58.972z"/>
		<path d="M-336.161-55.302c0-0.443,0.3-0.755,0.708-0.755c0.432,0,0.708,0.312,0.708,0.755c0,0.42-0.276,0.744-0.72,0.744
			C-335.874-54.558-336.161-54.882-336.161-55.302z M-336.161-51.067c0-0.444,0.3-0.756,0.708-0.756
			c0.432,0,0.708,0.312,0.708,0.756c0,0.42-0.276,0.743-0.72,0.743C-335.874-50.324-336.161-50.647-336.161-51.067z"/>
		<path d="M-321.692-57.508c-0.216-0.013-0.492,0.012-0.792,0.06c-1.667,0.264-2.531,1.463-2.71,2.759h0.024
			c0.372-0.504,1.031-0.912,1.895-0.912c1.379,0,2.351,1.008,2.351,2.519c0,1.439-0.972,2.759-2.603,2.759
			c-1.655,0-2.747-1.295-2.747-3.322c0-1.535,0.54-2.746,1.319-3.514c0.647-0.636,1.511-1.031,2.495-1.151
			c0.312-0.048,0.576-0.061,0.768-0.061V-57.508z M-321.992-53.011c0-1.115-0.636-1.787-1.607-1.787
			c-0.636,0-1.235,0.384-1.523,0.96c-0.06,0.12-0.108,0.264-0.108,0.455c0.012,1.283,0.612,2.243,1.727,2.243
			C-322.604-51.14-321.992-51.896-321.992-53.011z"/>
	</g>
	<g id="Elements:70">
		<path d="M-375.415-39.246h-3.13v2.914h3.502v0.876h-4.558v-8.084h4.378v0.876h-3.322v2.555h3.13V-39.246z"/>
		<path d="M-373.721-43.972h1.056v8.516h-1.056V-43.972z"/>
		<path d="M-370.301-38.167c0.024,1.428,0.923,2.016,1.991,2.016c0.755,0,1.223-0.132,1.607-0.3l0.192,0.755
			c-0.372,0.168-1.019,0.372-1.943,0.372c-1.787,0-2.854-1.188-2.854-2.938s1.032-3.118,2.723-3.118
			c1.907,0,2.399,1.655,2.399,2.723c0,0.216-0.012,0.372-0.036,0.491H-370.301z M-367.207-38.922
			c0.012-0.66-0.276-1.703-1.463-1.703c-1.079,0-1.535,0.972-1.619,1.703H-367.207z"/>
		<path d="M-364.877-39.689c0-0.612-0.024-1.092-0.048-1.571h0.923l0.048,0.947h0.036c0.324-0.552,0.864-1.067,1.835-1.067
			c0.78,0,1.379,0.479,1.631,1.163h0.024c0.18-0.336,0.419-0.575,0.66-0.755c0.348-0.265,0.719-0.408,1.271-0.408
			c0.78,0,1.919,0.504,1.919,2.519v3.406h-1.031v-3.274c0-1.127-0.42-1.787-1.259-1.787c-0.612,0-1.067,0.444-1.259,0.948
			c-0.048,0.155-0.084,0.335-0.084,0.527v3.586h-1.032v-3.479c0-0.923-0.408-1.583-1.211-1.583c-0.648,0-1.14,0.528-1.308,1.056
			c-0.06,0.144-0.084,0.336-0.084,0.516v3.49h-1.031V-39.689z"/>
		<path d="M-354.281-38.167c0.024,1.428,0.923,2.016,1.991,2.016c0.755,0,1.223-0.132,1.607-0.3l0.192,0.755
			c-0.372,0.168-1.019,0.372-1.943,0.372c-1.787,0-2.854-1.188-2.854-2.938s1.032-3.118,2.723-3.118
			c1.907,0,2.399,1.655,2.399,2.723c0,0.216-0.012,0.372-0.036,0.491H-354.281z M-351.187-38.922
			c0.012-0.66-0.276-1.703-1.463-1.703c-1.08,0-1.535,0.972-1.619,1.703H-351.187z"/>
		<path d="M-348.857-39.689c0-0.612-0.012-1.092-0.048-1.571h0.936l0.06,0.959h0.024c0.288-0.539,0.959-1.079,1.919-1.079
			c0.803,0,2.051,0.479,2.051,2.471v3.454h-1.056v-3.346c0-0.936-0.348-1.716-1.343-1.716c-0.684,0-1.223,0.492-1.415,1.08
			c-0.048,0.132-0.072,0.312-0.072,0.491v3.49h-1.056V-39.689z"/>
		<path d="M-340.974-42.652v1.392h1.511v0.804h-1.511v3.13c0,0.72,0.204,1.128,0.792,1.128c0.288,0,0.456-0.024,0.612-0.072
			l0.048,0.804c-0.204,0.071-0.528,0.144-0.936,0.144c-0.492,0-0.888-0.168-1.14-0.443c-0.288-0.324-0.408-0.84-0.408-1.523v-3.166
			h-0.899v-0.804h0.899v-1.079L-340.974-42.652z"/>
		<path d="M-338.417-36.523c0.324,0.191,0.875,0.408,1.403,0.408c0.756,0,1.115-0.372,1.115-0.864c0-0.504-0.3-0.768-1.067-1.055
			c-1.055-0.384-1.547-0.948-1.547-1.644c0-0.936,0.768-1.703,2.003-1.703c0.587,0,1.104,0.156,1.415,0.36l-0.252,0.768
			c-0.228-0.145-0.647-0.349-1.187-0.349c-0.624,0-0.959,0.36-0.959,0.792c0,0.479,0.335,0.695,1.091,0.995
			c0.996,0.372,1.523,0.876,1.523,1.739c0,1.031-0.803,1.751-2.159,1.751c-0.636,0-1.223-0.168-1.631-0.407L-338.417-36.523z"/>
		<path d="M-330.977-39.45c0-0.684-0.012-1.271-0.048-1.811h0.923l0.048,1.151h0.036c0.264-0.779,0.912-1.271,1.619-1.271
			c0.108,0,0.192,0.012,0.288,0.024v0.995c-0.108-0.024-0.216-0.024-0.36-0.024c-0.744,0-1.271,0.552-1.416,1.344
			c-0.024,0.144-0.036,0.324-0.036,0.491v3.095h-1.056V-39.45z"/>
		<path d="M-326.585-38.167c0.024,1.428,0.923,2.016,1.991,2.016c0.755,0,1.223-0.132,1.607-0.3l0.192,0.755
			c-0.372,0.168-1.019,0.372-1.943,0.372c-1.787,0-2.854-1.188-2.854-2.938s1.032-3.118,2.723-3.118
			c1.907,0,2.399,1.655,2.399,2.723c0,0.216-0.012,0.372-0.036,0.491H-326.585z M-323.491-38.922
			c0.012-0.66-0.276-1.703-1.463-1.703c-1.08,0-1.535,0.972-1.619,1.703H-323.491z"/>
		<path d="M-317.203-36.344h-0.024c-0.324,0.563-0.959,1.02-1.895,1.02c-1.355,0-2.459-1.163-2.459-2.927
			c0-2.183,1.403-3.13,2.627-3.13c0.899,0,1.499,0.443,1.787,0.995h0.024l0.036-0.875h0.996c-0.024,0.479-0.048,0.995-0.048,1.595
			v6.585h-1.043V-36.344z M-317.203-38.91c0-0.144-0.012-0.3-0.048-0.432c-0.167-0.647-0.719-1.199-1.511-1.199
			c-1.092,0-1.751,0.923-1.751,2.219c0,1.163,0.552,2.158,1.715,2.158c0.684,0,1.271-0.419,1.511-1.139
			c0.048-0.156,0.084-0.36,0.084-0.516V-38.91z"/>
		<path d="M-309.548-37.051c0,0.611,0.012,1.139,0.048,1.595h-0.936l-0.06-0.947h-0.024c-0.264,0.468-0.887,1.079-1.919,1.079
			c-0.911,0-2.003-0.516-2.003-2.543v-3.394h1.056v3.202c0,1.104,0.348,1.859,1.295,1.859c0.708,0,1.199-0.492,1.391-0.972
			c0.06-0.145,0.096-0.336,0.096-0.54v-3.55h1.056V-37.051z"/>
		<path d="M-306.618-42.892c0,0.359-0.252,0.647-0.671,0.647c-0.384,0-0.636-0.288-0.636-0.647c0-0.36,0.264-0.66,0.66-0.66
			C-306.882-43.552-306.618-43.264-306.618-42.892z M-307.793-35.456v-5.805h1.056v5.805H-307.793z"/>
		<path d="M-304.986-39.45c0-0.684-0.012-1.271-0.048-1.811h0.923l0.048,1.151h0.036c0.264-0.779,0.912-1.271,1.619-1.271
			c0.108,0,0.192,0.012,0.288,0.024v0.995c-0.108-0.024-0.216-0.024-0.36-0.024c-0.744,0-1.271,0.552-1.416,1.344
			c-0.024,0.144-0.036,0.324-0.036,0.491v3.095h-1.056V-39.45z"/>
		<path d="M-300.594-38.167c0.024,1.428,0.923,2.016,1.991,2.016c0.755,0,1.223-0.132,1.607-0.3l0.192,0.755
			c-0.372,0.168-1.019,0.372-1.943,0.372c-1.787,0-2.854-1.188-2.854-2.938s1.032-3.118,2.723-3.118
			c1.907,0,2.399,1.655,2.399,2.723c0,0.216-0.012,0.372-0.036,0.491H-300.594z M-297.5-38.922c0.012-0.66-0.276-1.703-1.463-1.703
			c-1.079,0-1.535,0.972-1.619,1.703H-297.5z"/>
		<path d="M-290.168-43.972v7.017c0,0.516,0.024,1.104,0.048,1.499h-0.936l-0.048-1.008h-0.036c-0.312,0.648-1.007,1.14-1.955,1.14
			c-1.403,0-2.495-1.188-2.495-2.95c-0.012-1.931,1.2-3.106,2.603-3.106c0.9,0,1.487,0.42,1.751,0.876h0.024v-3.467H-290.168z
			 M-291.211-38.898c0-0.132-0.012-0.312-0.048-0.443c-0.156-0.66-0.731-1.212-1.523-1.212c-1.091,0-1.739,0.96-1.739,2.231
			c0,1.175,0.588,2.146,1.715,2.146c0.708,0,1.355-0.479,1.547-1.259c0.036-0.145,0.048-0.288,0.048-0.456V-38.898z"/>
		<path d="M-288.642-40.302c0-0.443,0.3-0.755,0.708-0.755c0.432,0,0.708,0.312,0.708,0.755c0,0.42-0.276,0.744-0.72,0.744
			C-288.354-39.558-288.642-39.882-288.642-40.302z M-288.642-36.067c0-0.444,0.3-0.756,0.708-0.756
			c0.432,0,0.708,0.312,0.708,0.756c0,0.42-0.276,0.743-0.72,0.743C-288.354-35.324-288.642-35.647-288.642-36.067z"/>
		<path d="M-273.561-43.252v0.696l-3.395,7.1h-1.091l3.382-6.896v-0.023h-3.814v-0.876H-273.561z"/>
		<path d="M-267.273-39.438c0,2.65-0.996,4.113-2.71,4.113c-1.523,0-2.567-1.427-2.591-4.006c0-2.626,1.14-4.054,2.723-4.054
			C-268.221-43.384-267.273-41.921-267.273-39.438z M-271.507-39.318c0,2.027,0.624,3.179,1.583,3.179
			c1.067,0,1.583-1.26,1.583-3.25c0-1.919-0.48-3.179-1.583-3.179C-270.835-42.568-271.507-41.44-271.507-39.318z"/>
	</g>
	<g>
	</g>
	<g>
	</g>
	<g>
	</g>
	<g>
	</g>
	<g>
	</g>
	<g>
	</g>
</g>
</svg>
